<svg xmlns="http://www.w3.org/2000/svg" viewBox="0 0 66 66"><defs><style>.cls-1{fill:#6dbfc0;}.cls-2{fill:#fff;}</style></defs><title>cartIconFichier 3</title><g id="Calque_2" data-name="Calque 2"><g id="Calque_1-2" data-name="Calque 1"><circle class="cls-1" cx="33" cy="33" r="33"/><path class="cls-1" d="M38.85,20.75a5.64,5.64,0,0,0-5.8-5.43,5.64,5.64,0,0,0-5.81,5.43V24H38.85Z"/><polygon class="cls-1" points="41.75 26.93 41.75 29.83 38.85 29.83 38.85 26.93 27.24 26.93 27.24 29.83 24.34 29.83 24.34 26.93 21.09 26.93 18.84 47.24 47.17 47.24 44.91 26.93 41.75 26.93"/><path class="cls-2" d="M47.51,24H41.75V20.75a8.53,8.53,0,0,0-8.7-8.33,8.54,8.54,0,0,0-8.71,8.33V24H18.49l-2.9,26.11H50.41ZM27.24,20.75a5.64,5.64,0,0,1,5.81-5.43,5.64,5.64,0,0,1,5.8,5.43V24H27.24ZM18.83,47.24l2.26-20.31h3.25v2.9h2.9v-2.9H38.85v2.9h2.9v-2.9h3.16l2.26,20.31Z"/></g></g></svg>