<svg xmlns="http://www.w3.org/2000/svg" viewBox="0 0 620.65 553.88"><defs><style>.cls-1{fill:#f4a28c;}.cls-15,.cls-2{fill:#e6e6e6;}.cls-2{opacity:0.45;}.cls-11,.cls-12,.cls-13,.cls-2,.cls-6,.cls-8{isolation:isolate;}.cls-3{fill:#24285b;}.cls-12,.cls-13,.cls-4{fill:#6dbfc0;}.cls-11,.cls-5{fill:#fff;}.cls-6{fill:#ce8172;opacity:0.31;}.cls-7{fill:#fd8870;}.cls-8{opacity:0.08;}.cls-9{fill:#ffd200;}.cls-10{fill:#ce7c6e;}.cls-11{opacity:0.53;}.cls-12{opacity:0.58;}.cls-13{opacity:0.73;}.cls-14{fill:#c9c9c9;}.cls-16{fill:#a5a5a5;}</style></defs><title>illustrationOneFichier 4</title><g id="Calque_2" data-name="Calque 2"><g id="Calque_1-2" data-name="Calque 1"><path class="cls-1" d="M211.71,107.62s43.08,18.83,76.16,67.63,119.17,32.61,135-42.34c0,0,6.46-35.17,18-33.73s0,26.53,0,26.53,15.79.74,14.34,12.93-20.8,23.69-20.8,23.69-33.75,149.34-198.15,58.88Z"/><ellipse class="cls-2" cx="287.12" cy="517.55" rx="287.12" ry="36.33"/><path class="cls-3" d="M188.71,50.46s24,40.13-3.51,50.44-26.32-62.11-26.32-62.11Z"/><path class="cls-4" d="M128.62,90.74s-77.75,35.4-76.89,91.32,59.81,154,59.81,154H236.81V271.16a136.94,136.94,0,0,1,12.92-57.87c12.73-27.36,19.66-77.95-65.84-122.55Z"/><path class="cls-5" d="M143.48,100.28s31.17,21.71,40.45-9.54H155.14Z"/><path class="cls-1" d="M181.37,21.23s6.78,14.39,7.95,25.18a8,8,0,0,1-7.07,8.79c-5.45.49-12.92-.41-17.53-7.67l-9.26-11.37a14.26,14.26,0,0,1,.6-16.48C162.14,10.53,177.69,12.27,181.37,21.23Z"/><polygon class="cls-1" points="158.86 38.77 155.13 90.72 183.91 90.74 175.27 53.88 158.86 38.77"/><path class="cls-1" d="M185.18,30.52l6.29,4.2a2.57,2.57,0,0,1,.68,3.56,2.66,2.66,0,0,1-.79.74L186,42.21Z"/><path class="cls-6" d="M175.53,54.92a19.42,19.42,0,0,1-9.37-4.46S164.29,61.7,178,65.54Z"/><path class="cls-3" d="M170.86,28.92l-6.72,2.31s7.34,28.66-2.35,53.69a25.85,25.85,0,0,1-39.5,10.77l-5.88-4.31a12,12,0,0,1,1.12-20.07c10.9-6.46,22.23-18,20.14-37.52-2.46-23,18.41-36.91,33.45-33.19S185.63,25.39,170.86,28.92Z"/><path class="cls-1" d="M168.25,38.12s-2.15-5.69-6.46-3.66-1,10.29,5.19,8.89Z"/><polygon class="cls-1" points="143.31 416.38 160.86 508.44 171.61 503.83 171.59 404.26 143.31 416.38"/><polygon class="cls-1" points="223.65 419.81 267.67 501.63 278.93 501.63 253.8 410.81 223.65 419.81"/><path class="cls-4" d="M160.71,502.38s-6.46,8.25-14.81,7.84-9.52,11.35,3.85,10.15a73.56,73.56,0,0,0,12.32-2.16,22,22,0,0,1,11.29.41,3.63,3.63,0,0,0,3.81-1.53c3.79-4.45-5.54-14.73-5.54-14.73Z"/><path class="cls-7" d="M469.37,21.36s3.38,17.58,16.28,23.48,5.54,24.64-13.76,12.32a126.15,126.15,0,0,1-17-12.92A37.25,37.25,0,0,0,437.51,36a6.12,6.12,0,0,1-4.58-5.3c-2.16-9.71,19.92-18,19.92-18Z"/><path class="cls-4" d="M278.83,500s4.84,9.32,13.09,10.48,7.24,12.93-5.69,9.22a72.3,72.3,0,0,1-11.8-4.43,21.58,21.58,0,0,0-11.05-1.68,3.58,3.58,0,0,1-3.46-2.16c-1.53-2.69.84-6.29,3.42-9.09a11,11,0,0,1,10.12-3.31Z"/><path class="cls-5" d="M100.41,320.09c-.28-1.1-6.76-26.75,10.12-40.34l1.53,1.9c-15.68,12.62-9.35,37.56-9.28,37.82Z"/><path class="cls-5" d="M130.71,316.15c-.28-1.1-7.19-27.53,10.3-40.13l1.35,1.68c-15.68,12.63-9.37,37.57-9.3,37.82Z"/><rect class="cls-7" x="183.01" y="223.27" width="51.69" height="35.11" transform="translate(-107.33 281.35) rotate(-56.37)"/><path class="cls-8" d="M123,133.88s40.58,34.2,16.55,74-16.65,81.18,28.66,71.83l45.23-9.37h0s21.54,36.9-19.38,43.49L199.93,336l-94.76,1.14-3.81-24.58-17.23-29L44,250.31Z"/><path class="cls-1" d="M125.69,144.58A30.93,30.93,0,0,0,74.86,123c-16.47,13.89-33.72,34.46-40.42,63-14.37,61-20,114.15,17.23,127.07s137.62-25.84,137.62-25.84,31,0,33.17-22.25-29.07-13.85-37.34,6.46c0,0-121.3,35.9-105.54-22.25C91.9,204.13,128.64,186.9,125.69,144.58Z"/><rect class="cls-3" x="385.74" y="59.7" width="119.92" height="19.3"/><rect class="cls-4" x="421.03" y="141.89" width="12.92" height="32.31" transform="translate(125.07 499.03) rotate(-68.72)"/><path class="cls-3" d="M111.54,336l22.68,152.27H198.4l-19.72-93.45a39,39,0,0,1,22.95-44L236.76,336Z"/><polygon class="cls-3" points="236.81 336.01 299.35 488.28 236.81 488.28 185.18 351.86 236.81 336.01"/><polygon class="cls-9" points="84.17 310.92 164.5 308.25 180.21 404.63 74.99 412.14 84.17 310.92"/><polygon class="cls-10" points="84.17 310.92 164.5 308.25 180.21 404.63 74.99 412.14 84.17 310.92"/><polygon class="cls-7" points="101.85 310.33 175.38 308.05 200.24 403.07 95.02 410.57 101.85 310.33"/><path class="cls-5" d="M125,322.5l-2.15-1c.11-.24,10.94-23.54.64-39.18h0a9.29,9.29,0,0,0-6-3.14,7.7,7.7,0,0,0-5.77,2.8l-2.39-.95a10.77,10.77,0,0,1,8.23-4.31,11.68,11.68,0,0,1,7.9,4.22C136.48,297.76,125.43,321.51,125,322.5Z"/><path class="cls-5" d="M153.37,320.46l-2.15-1c.1-.23,10.94-23.54.64-39.17h0a9.15,9.15,0,0,0-6-3.15,8.62,8.62,0,0,0-6.46,3.3L137.71,279a10.77,10.77,0,0,1,8.25-4.3,11.71,11.71,0,0,1,7.93,4.15C164.89,295.71,153.84,319.44,153.37,320.46Z"/><circle class="cls-7" cx="164.18" cy="46.52" r="5.34"/><rect class="cls-4" x="417.25" y="37.04" width="28.45" height="22.68"/><path class="cls-4" d="M584.36,166.59s3.38,17.58,16.3,23.48,5.54,24.64-13.76,12.32a123.36,123.36,0,0,1-17-12.93,37.35,37.35,0,0,0-17.41-8.24,6.1,6.1,0,0,1-4.56-5.28c-2.26-9.74,19.9-18,19.9-18Z"/><path class="cls-11" d="M584.36,166.59s3.38,17.58,16.3,23.48,5.54,24.64-13.76,12.32a123.36,123.36,0,0,1-17-12.93,37.35,37.35,0,0,0-17.41-8.24,6.1,6.1,0,0,1-4.56-5.28c-2.26-9.74,19.9-18,19.9-18Z"/><rect class="cls-3" x="500.73" y="204.93" width="119.92" height="19.3"/><rect class="cls-4" x="532.24" y="182.27" width="28.45" height="22.68"/><path class="cls-12" d="M363.27,346.75s-19.77-5.29-24.14-23.69c0,0,30.56-6.31,31.58,25.27Z"/><path class="cls-13" d="M365.67,344.79S351.8,323,363.83,302.6c0,0,23.33,14.67,13.12,42.19Z"/><path class="cls-4" d="M369.24,344.79s7.17-23.06,29.18-27.52c0,0,4.2,15-14.15,27.52Z"/><polygon class="cls-3" points="354.92 344.34 359.03 371.69 384.23 371.69 387.83 344.34 354.92 344.34"/><rect class="cls-14" x="335.96" y="371.69" width="70.82" height="150.27"/><rect class="cls-15" x="406.78" y="469.11" width="70" height="20.87"/><rect class="cls-16" x="406.78" y="489.96" width="89.92" height="32"/></g></g></svg>