<svg xmlns="http://www.w3.org/2000/svg" viewBox="0 0 421.18 350.6"><defs><style>.cls-1{fill:#f4a28c;}.cls-2{fill:#24285b;}.cls-3{fill:#ce8172;opacity:0.31;}.cls-14,.cls-3,.cls-5,.cls-6{isolation:isolate;}.cls-4{fill:#6dbfc0;}.cls-5{fill:#fff;opacity:0.2;}.cls-13,.cls-6{fill:#e6e6e6;}.cls-6{opacity:0.45;}.cls-7{fill:#c9c9c9;}.cls-8{fill:#d36820;}.cls-9{fill:#ffd200;}.cls-10{fill:#e06b58;}.cls-11{fill:#fd8870;}.cls-12{fill:#edaca2;}.cls-14{opacity:0.08;}.cls-15{fill:#a5a5a5;}</style></defs><title>illustrationTwoFichier 5</title><g id="Calque_2" data-name="Calque 2"><g id="Calque_1-2" data-name="Calque 1"><path class="cls-1" d="M144,52s-3.89,8.25-4.56,14.43a4.59,4.59,0,0,0,4.09,5h0c3.12.29,7.43-.23,10.06-4.4l5.32-6.53a8.18,8.18,0,0,0-.35-9.46C155,45.83,146.08,46.83,144,52Z"/><polygon class="cls-1" points="156.88 62.04 159.03 91.85 142.51 91.87 147.45 70.71 156.88 62.04"/><path class="cls-2" d="M146,53.13a37.55,37.55,0,0,0,8.11,2.31,7.6,7.6,0,0,0-2.89,7.82,6.19,6.19,0,0,0,6.16,4.91l4-11.05a9.29,9.29,0,0,0-1.6-9.4,34.29,34.29,0,0,0-3-3.15c-2.66-2.44-8.11-2-10.16-5.23a2.2,2.2,0,0,0-3.05-.63,2.16,2.16,0,0,0-.72.78c-1.74,3.16-3.08,8.64.77,12.13A8.64,8.64,0,0,0,146,53.13Z"/><path class="cls-1" d="M150.35,62.66s1.32-3.27,3.66-2.1.56,5.91-3,5.12Z"/><path class="cls-1" d="M141.78,57.31l-3.61,2.46a1.46,1.46,0,0,0,0,2.47l3,1.82Z"/><path class="cls-3" d="M147.32,71.31a11.26,11.26,0,0,0,5.38-2.58s1.06,6.47-6.8,8.63Z"/><circle class="cls-2" cx="269.59" cy="47.16" r="44.96"/><polygon class="cls-2" points="235.89 58.05 204.93 80.38 247.92 72.66 235.89 58.05"/><path class="cls-4" d="M51.78,96.34s-37.6,72.77-8,87.38,90.49-56.88,90.49-56.88L116.54,90.9S76.3,114.22,57.93,153.17L61,93.24Z"/><path class="cls-5" d="M51.78,96.34s-37.6,72.77-8,87.38,90.49-56.88,90.49-56.88L116.54,90.9S76.3,114.22,57.93,153.17L61,93.24Z"/><ellipse class="cls-6" cx="226.81" cy="319.05" rx="194.37" ry="31.56"/><rect class="cls-7" x="178.02" y="145.25" width="189.73" height="138.51" rx="12.95"/><circle class="cls-8" cx="42.62" cy="47.3" r="42.62"/><circle class="cls-9" cx="42.62" cy="47.3" r="42.62"/><circle class="cls-10" cx="42.62" cy="47.3" r="42.62"/><circle class="cls-11" cx="54.75" cy="42.62" r="42.62"/><circle class="cls-12" cx="54.75" cy="42.62" r="29.11"/><rect class="cls-13" x="178.02" y="161.01" width="189.73" height="158.58" rx="17.89"/><path class="cls-14" d="M251.55,145.25h31.88S301,226.94,244.58,246.7s-21.25,72.89-21.25,72.89H192.65l-9.9-12.46V269.72l-7.61-37.3,17.47-69.71,18.72-15.61Z"/><rect class="cls-15" x="295.62" y="217.86" width="86.93" height="45.85" rx="18.71"/><circle class="cls-13" cx="317.08" cy="240.59" r="10.07"/><path class="cls-4" d="M108.91,97.13a22.79,22.79,0,0,1,16.28-8.62c13.69-1,50.15,3.66,71.57,16.86,30,18.49,35.07,42.16-14,119.47l-51.8-3S73.3,142,108.91,97.13Z"/><path class="cls-14" d="M171.49,116s-11.08,26.08,3.65,49.14-25.82,57.75-25.82,57.75L181,224.84l6.09-7s23.21-38.16,27.89-54.45S192,138.37,192,138.37Z"/><path class="cls-4" d="M172.42,133.37c-9-16,7.12-34.53,24.32-28,27.72,10.54,68.95,33.9,62.27,78.37-9.92,66.1-60,45.71-60,45.71l-.53-13.19s32,.73,32.28-31.87C231,160.33,186,157.54,172.42,133.37Z"/><path class="cls-5" d="M172.42,133.37c-9-16,7.12-34.53,24.32-28,27.72,10.54,68.95,33.9,62.27,78.37-9.92,66.1-60,45.71-60,45.71l-.53-13.19s32,.73,32.28-31.87C231,160.33,186,157.54,172.42,133.37Z"/><path class="cls-2" d="M130.88,221.8l8.77,90.31h13.1l2.66-53.23a29.73,29.73,0,0,1,11.72-22.21l15.64-11.83Z"/><polygon class="cls-2" points="182.71 224.84 194.07 312.11 180.14 314.6 160.21 241.88 145.9 232.41 182.71 224.84"/><path class="cls-1" d="M61,93.24S58.45,84.56,43.76,85,36.68,104.56,61,93.24Z"/><path class="cls-1" d="M198.44,216.26s-17.52-.69-18.08,9.07,5.08,13,11.72,12.55-2.21-5.84,6.36-10.79Z"/><path class="cls-4" d="M143.65,312.11s-1.41,5.89-6.47,6.88-5.84,6.14-1.1,6.94S152,319.5,152,319.5l-1.16-7.33Z"/><path class="cls-4" d="M189.76,312.84s2.55,5.49,7.71,5.46,7,4.86,2.47,6.58-16.9-3.14-16.9-3.14l-.33-7.41Z"/><path class="cls-11" d="M271.29,20.71c1.32,0,1.74.46,1.74,1.79v2.84c5.31.76,8.39,3.41,10.62,8.05.69,1.33.4,2.14-1.17,2.83l-2.83,1.33c-1.32.63-2,.34-2.65-1a7.25,7.25,0,0,0-7.41-4.46c-4.92,0-7.18,1.45-7.18,4.74,0,2.15,2,3.48,4,3.88a32.55,32.55,0,0,0,4.17.64,27.32,27.32,0,0,1,7.7,1.51,10.24,10.24,0,0,1,3.42,1.85,11.14,11.14,0,0,1,3.06,8.1c0,6.31-4.22,10.62-11.68,11.7v3c0,1.33-.42,1.79-1.74,1.79h-3.19c-1.33,0-1.79-.46-1.79-1.79v-3c-5.8-.76-9.67-3.71-11.59-8.91a1.91,1.91,0,0,1,.93-2.53,1.87,1.87,0,0,1,.4-.13l2.83-1c1.45-.51,2.09-.17,2.72,1.33q1.92,4.86,7.81,4.86c5.32,0,8-1.68,8-5.1a3.51,3.51,0,0,0-2.49-3.58,20.07,20.07,0,0,0-5.73-1.11,25,25,0,0,1-7.81-1.78A10.63,10.63,0,0,1,258,44.61a10.67,10.67,0,0,1-3.12-7.87c0-6.25,4-10.42,11.35-11.4V22.5c0-1.33.46-1.79,1.79-1.79Z"/></g></g></svg>